<svg width="14" height="14" viewBox="0 0 14 14" fill="none" xmlns="http://www.w3.org/2000/svg">
<path d="M11.9222 2.94626L7.42 1.07035C7.2793 1.02345 7.13861 1 6.99792 1C6.83377 1 6.69308 1.02345 6.55239 1.07035L2.05019 2.94626C1.62811 3.13385 1.37017 3.53249 1.37017 3.97802C1.37017 8.64436 4.04335 11.8569 6.55239 12.9121C6.83377 13.0293 7.13861 13.0293 7.42 12.9121C9.43661 12.0679 12.6257 9.18368 12.6257 3.97802C12.6257 3.53249 12.3443 3.13385 11.9222 2.94626ZM10.1617 5.72512L6.50549 9.14349C6.3648 9.30763 6.10686 9.30763 5.96616 9.14349L3.95625 7.37141C3.81556 7.23072 3.81556 6.99623 3.95625 6.85554L4.24099 6.5708C4.38168 6.43011 4.61617 6.43011 4.75687 6.5708L6.30267 7.91226L9.41619 4.97962C9.55689 4.83893 9.79138 4.83893 9.93207 4.97962L10.1617 5.20924C10.3024 5.34994 10.3024 5.58443 10.1617 5.72512Z" fill="#828A99"/>
</svg>
